<svg width="24" height="21" viewBox="0 0 24 21" fill="none" xmlns="http://www.w3.org/2000/svg">
<path d="M17.8975 18.2744C18.0645 19.7158 18.8379 20.3926 20.2881 20.208L21.9844 20.0146C23.4346 19.8301 24.0586 19.0479 23.9004 17.6064L22.4854 4.80078C22.3271 3.35938 21.5361 2.67383 20.0947 2.86719L18.3984 3.06055C18.0205 3.10449 17.7041 3.19238 17.4404 3.32422V2.83203C17.4404 1.38184 16.7197 0.643555 15.2695 0.643555H12.9141C11.4551 0.643555 10.7344 1.38184 10.7344 2.83203V6.27734C10.585 6.25977 10.4268 6.25098 10.251 6.25098H6.19043C6.01465 6.25098 5.84766 6.25977 5.69824 6.27734V5.31934C5.69824 3.86035 4.97754 3.12207 3.52734 3.12207H2.24414C0.785156 3.12207 0.0644531 3.86035 0.0644531 5.31934V17.9932C0.0644531 19.4434 0.785156 20.1816 2.24414 20.1816H15.2695C16.7197 20.1816 17.4404 19.4434 17.4404 17.9932V14.1787L17.8975 18.2744ZM13.1689 2.32227H15.0146C15.5156 2.32227 15.7617 2.58594 15.7617 3.06055V17.7559C15.7617 18.2393 15.5156 18.5029 15.0146 18.5029H12.4219V3.06055C12.4219 2.58594 12.668 2.32227 13.1689 2.32227ZM19.541 17.8613L18.1699 5.5127C18.1172 5.03809 18.3369 4.77441 18.8291 4.7041L20.0156 4.56348C20.5078 4.49316 20.7891 4.73926 20.8418 5.20508L22.2129 17.5537C22.2656 18.0371 22.0459 18.3008 21.5537 18.3711L20.3584 18.5117C19.8662 18.582 19.5938 18.3447 19.541 17.8613ZM2.49023 18.5029C1.99805 18.5029 1.74316 18.2393 1.74316 17.7559V5.53906C1.74316 5.06445 1.99805 4.80957 2.49023 4.80957H3.26367C3.77344 4.80957 4.01074 5.06445 4.01074 5.53906V18.5029H2.49023ZM6.44531 7.92969H9.9873C10.4971 7.92969 10.7344 8.18457 10.7344 8.65918V18.5029H5.69824V8.65918C5.69824 8.18457 5.94434 7.92969 6.44531 7.92969ZM6.99023 10.1445H9.47754C9.79395 10.1445 10.04 9.88965 10.04 9.57324C10.04 9.25684 9.79395 9.01074 9.47754 9.01074H6.99023C6.65625 9.01074 6.41895 9.25684 6.41895 9.57324C6.41895 9.88965 6.66504 10.1445 6.99023 10.1445ZM6.99023 17.4307H9.47754C9.79395 17.4307 10.04 17.1758 10.04 16.8506C10.04 16.543 9.79395 16.2881 9.47754 16.2881H6.99023C6.66504 16.2881 6.41895 16.543 6.41895 16.8506C6.41895 17.1758 6.65625 17.4307 6.99023 17.4307Z" fill="#191414" fill-opacity="0.75"/>
</svg>
