<svg width="10" height="6" viewBox="0 0 10 6" fill="none" xmlns="http://www.w3.org/2000/svg">
<path d="M4.80246 0.770647C4.62667 0.77567 4.476 0.84096 4.3404 0.976563L0.518415 4.88393C0.407924 4.99944 0.347656 5.13504 0.347656 5.30078C0.347656 5.63728 0.608817 5.89844 0.945312 5.89844C1.10603 5.89844 1.2567 5.83315 1.37221 5.71763L4.80246 2.20201L8.2327 5.71763C8.34822 5.83315 8.49386 5.89844 8.6596 5.89844C8.99609 5.89844 9.25725 5.63728 9.25725 5.30078C9.25725 5.14007 9.19699 4.99944 9.0865 4.88393L5.25949 0.976563C5.12891 0.835938 4.97824 0.770647 4.80246 0.770647Z" fill="#191414" fill-opacity="0.5"/>
</svg>
