<svg width="14" height="22" viewBox="0 0 14 22" fill="none" xmlns="http://www.w3.org/2000/svg">
<path d="M3.91503 21.375C4.68846 21.375 5.16307 20.9355 5.15428 20.1973L4.9785 10.2393C4.9785 9.87891 5.10155 9.66797 5.39159 9.53613C6.5869 9 7.12303 8.4375 7.04393 6.81152L6.79784 1.42383C6.77147 1.01074 6.53417 0.773438 6.15624 0.773438C5.77831 0.773438 5.55858 1.02832 5.55858 1.44141L5.62889 6.6709C5.62889 6.99609 5.42674 7.18945 5.13671 7.18945C4.83788 7.18945 4.63573 7.00488 4.62694 6.69727L4.53905 1.27441C4.53026 0.878906 4.29296 0.632812 3.91503 0.632812C3.5371 0.632812 3.29979 0.878906 3.291 1.27441L3.20311 6.69727C3.20311 6.99609 2.99217 7.18945 2.69335 7.18945C2.40331 7.18945 2.20116 6.99609 2.20995 6.6709L2.27147 1.44141C2.27147 1.02832 2.05174 0.773438 1.67381 0.773438C1.29589 0.773438 1.05858 1.01953 1.03221 1.42383L0.786119 6.81152C0.707018 8.4375 1.24315 9 2.43846 9.53613C2.7285 9.66797 2.85155 9.87891 2.85155 10.2393L2.67577 20.1973C2.65819 20.9355 3.14159 21.375 3.91503 21.375ZM10.9023 13.6055L10.7265 20.1621C10.7002 20.9355 11.1924 21.375 11.957 21.375C12.7392 21.375 13.2139 20.9707 13.2139 20.2412V1.31836C13.2139 0.861328 12.915 0.632812 12.5635 0.632812C12.2295 0.632812 11.9922 0.817383 11.7021 1.23047C10.2695 3.24316 9.28514 7.11035 9.28514 10.626V11.0918C9.28514 11.7246 9.50487 12.1553 9.98827 12.4893L10.4629 12.8057C10.7793 13.0254 10.9111 13.2627 10.9023 13.6055Z" fill="#191414" fill-opacity="0.75"/>
</svg>
