<svg width="18" height="20" viewBox="0 0 18 20" fill="none" xmlns="http://www.w3.org/2000/svg">
<path d="M4.20117 19.54H13.79C15.4512 19.54 16.374 18.6436 16.374 16.9824V11.7266H16.4268C17.1914 11.5068 17.5957 10.8564 17.5957 9.88965V7.6748C17.5957 6.4707 16.9277 5.72363 15.7324 5.72363H14.2207C14.6953 5.24902 14.9766 4.60742 14.9766 3.86035C14.9766 2.10254 13.5791 0.854492 11.8301 0.854492C10.5293 0.854492 9.43066 1.58398 8.99121 2.88477C8.56055 1.58398 7.46191 0.854492 6.16113 0.854492C4.41211 0.854492 3.01465 2.10254 3.01465 3.86035C3.01465 4.60742 3.2959 5.24902 3.77051 5.72363H2.25879C1.10742 5.72363 0.395508 6.4707 0.395508 7.6748V9.88965C0.395508 10.8564 0.799805 11.5068 1.55566 11.7266H1.6084V16.9824C1.6084 18.6436 2.54004 19.54 4.20117 19.54ZM8.15625 5.72363H6.83789C5.49316 5.72363 4.71973 4.98535 4.71973 4.02734C4.71973 3.0957 5.37012 2.52441 6.31934 2.52441C7.33008 2.52441 8.15625 3.33301 8.15625 4.57227V5.72363ZM9.83496 5.72363V4.57227C9.83496 3.33301 10.6611 2.52441 11.6719 2.52441C12.6211 2.52441 13.2715 3.0957 13.2715 4.02734C13.2715 4.98535 12.498 5.72363 11.1533 5.72363H9.83496ZM8.10352 10.2588H2.72461C2.30273 10.2588 2.12695 10.083 2.12695 9.66113V7.90332C2.12695 7.48145 2.30273 7.30566 2.72461 7.30566H8.10352V10.2588ZM9.8877 10.2588V7.30566H15.2754C15.6885 7.30566 15.8555 7.48145 15.8555 7.90332V9.67871C15.8555 10.1006 15.6885 10.2588 15.2754 10.2588H9.8877ZM8.10352 17.9404H4.42969C3.73535 17.9404 3.34863 17.5537 3.34863 16.8682V11.8408H8.10352V17.9404ZM9.8877 17.9404V11.8408H14.6426V16.8682C14.6426 17.5537 14.2559 17.9404 13.5615 17.9404H9.8877Z" fill="#191414" fill-opacity="0.75"/>
</svg>
