<svg width="26" height="23" viewBox="0 0 26 23" fill="none" xmlns="http://www.w3.org/2000/svg">
<path d="M4.29883 13.3367C4.29883 14.7078 5.14258 15.9383 6.61914 16.8435V17.6873C6.13574 17.8455 5.83691 18.2674 5.83691 18.8474V21.2117C5.83691 21.9588 6.3291 22.451 7.07617 22.451H7.44531C8.19238 22.451 8.68457 21.9588 8.68457 21.2117V18.8474C8.68457 18.2762 8.39453 17.8455 7.91992 17.6873V17.4851C9.2998 18.0388 11.0312 18.364 12.9912 18.364C18.1592 18.364 21.6924 16.1316 21.6924 13.3367V9.3992L24.1885 8.25662C24.8125 7.96658 25.1553 7.41287 25.1553 6.81522C25.1553 6.22635 24.8125 5.66385 24.1885 5.3826L15.4961 1.40994C14.5381 0.979278 13.7646 0.77713 12.9912 0.785919C12.2266 0.77713 11.4531 0.979278 10.4863 1.40994L1.80273 5.3826C1.16992 5.66385 0.835938 6.22635 0.835938 6.81522C0.835938 7.41287 1.16992 7.96658 1.80273 8.25662L4.29883 9.3992V13.3367ZM12.9912 11.1219C12.4287 11.1219 11.8926 10.9812 11.1631 10.6385L8.8252 9.58377L12.1738 7.82596C12.4375 7.89627 12.7275 7.94022 13.0264 7.94022C14.0283 7.94022 14.9951 7.4744 14.9951 6.81522C14.9951 6.17361 14.0283 5.71658 13.0264 5.71658C12.0156 5.71658 11.04 6.17361 11.04 6.81522C11.04 6.90311 11.0576 6.98221 11.084 7.05252L7.42773 8.94217L3.33203 7.07889C3.19141 7.01736 3.12109 6.92947 3.12109 6.81522C3.12109 6.70975 3.19141 6.61307 3.33203 6.55154L11.1631 2.99197C11.8926 2.65799 12.4287 2.50858 12.9912 2.50858C13.5537 2.50858 14.0898 2.65799 14.8281 2.99197L22.6592 6.55154C22.791 6.61307 22.8613 6.70975 22.8613 6.81522C22.8613 6.92947 22.791 7.01736 22.6592 7.07889L14.8281 10.6385C14.0898 10.9812 13.5537 11.1219 12.9912 11.1219ZM5.99512 13.3367V10.1726L6.61914 10.4539V14.7693C6.20605 14.3211 5.99512 13.8377 5.99512 13.3367ZM12.9912 12.8533C13.7646 12.8621 14.5381 12.6599 15.4961 12.2205L19.9961 10.1726V13.3367C19.9961 15.1209 17.2188 16.7644 12.9912 16.7644C10.8906 16.7644 9.1416 16.3513 7.91992 15.7185V11.0515L10.4863 12.2205C11.4531 12.6599 12.2266 12.8621 12.9912 12.8533Z" fill="#191414" fill-opacity="0.75"/>
</svg>
