<svg width="22" height="17" viewBox="0 0 22 17" fill="none" xmlns="http://www.w3.org/2000/svg">
<path d="M3.46777 16.8633H18.5234C20.4219 16.8633 21.4062 15.8877 21.4062 14.0156V3.31055C21.4062 1.43848 20.4219 0.462891 18.5234 0.462891H3.46777C1.56934 0.462891 0.584961 1.42969 0.584961 3.31055V14.0156C0.584961 15.8877 1.56934 16.8633 3.46777 16.8633ZM3.57324 15.1406C2.75586 15.1406 2.30762 14.7188 2.30762 13.8662V3.45996C2.30762 2.60742 2.75586 2.17676 3.57324 2.17676H18.418C19.2266 2.17676 19.6836 2.60742 19.6836 3.45996V13.8662C19.6836 14.7188 19.2266 15.1406 18.418 15.1406H3.57324ZM8.92578 4.83984C7.47559 4.83984 6.40332 5.94727 6.40332 7.50293C6.40332 9.89355 8.9873 11.9766 10.5518 12.9609C10.7012 13.0488 10.9033 13.1631 11.0176 13.1631C11.1406 13.1631 11.3252 13.0488 11.4658 12.9609C13.0127 11.959 15.6143 9.89355 15.6143 7.50293C15.6143 5.94727 14.5332 4.83984 13.083 4.83984C12.1514 4.83984 11.4219 5.38477 11.0088 6.14062C10.5869 5.38477 9.875 4.83984 8.92578 4.83984Z" fill="#191414" fill-opacity="0.75"/>
</svg>
