<svg width="12" height="20" viewBox="0 0 12 20" fill="none" xmlns="http://www.w3.org/2000/svg">
<path d="M2.56348 19.2607H9.47168C10.9658 19.2607 11.959 18.2852 11.959 16.835V2.45605C11.959 1.00586 10.9658 0.0302734 9.47168 0.0302734H2.56348C1.05176 0.0302734 0.0322266 1.00586 0.0322266 2.45605V16.835C0.0322266 18.2852 1.05176 19.2607 2.56348 19.2607ZM2.85352 16.3252C2.15918 16.3252 1.75488 15.9473 1.75488 15.2793V2.85156C1.75488 2.18359 2.15918 1.80566 2.85352 1.80566H9.14648C9.84082 1.80566 10.2451 2.18359 10.2451 2.85156V15.3145C10.2451 15.9824 9.84082 16.3252 9.14648 16.3252H7.42383V16.0176C7.42383 15.6396 7.16895 15.3848 6.79102 15.3848H5.21777C4.83105 15.3848 4.58496 15.6396 4.58496 16.0176V16.3252H2.85352Z" fill="#191414" fill-opacity="0.75"/>
</svg>
