<svg width="26" height="16" viewBox="0 0 26 16" fill="none" xmlns="http://www.w3.org/2000/svg">
<path d="M1.47754 15.0283H23.6084C24.8301 15.0283 25.6387 14.2461 25.6387 13.042V4.48145C25.6387 3.27734 24.8301 2.49512 23.6084 2.49512H23.3008V2.40723C23.3008 1.02734 22.5449 0.297852 21.1738 0.297852H5.45898C4.14062 0.297852 3.33203 1.02734 3.33203 2.40723V12.7695H1.47754C0.862305 12.7695 0.352539 13.2793 0.352539 13.9033C0.352539 14.5186 0.862305 15.0283 1.47754 15.0283ZM17.5352 4.48145V12.7695H5.08105V2.87305C5.08105 2.31055 5.35352 2.04688 5.90723 2.04688H20.7256C21.1299 2.04688 21.3848 2.19629 21.4902 2.49512H19.6006C18.3613 2.49512 17.5352 3.27734 17.5352 4.48145ZM18.9326 4.69238C18.9326 4.19141 19.249 3.89258 19.7764 3.89258H19.8994V4.24414C19.8994 4.55176 20.1016 4.75391 20.4004 4.75391H22.7822C23.0898 4.75391 23.2832 4.55176 23.2832 4.24414V3.89258H23.3975C23.9248 3.89258 24.2412 4.2002 24.2412 4.70117V12.8311C24.2412 13.332 23.9248 13.6309 23.3975 13.6309H19.7764C19.249 13.6309 18.9326 13.332 18.9326 12.8311V4.69238ZM20.251 13.0508H22.9316C23.1338 13.0508 23.2832 12.9102 23.2832 12.708C23.2832 12.4971 23.1338 12.3564 22.9316 12.3564H20.251C20.0488 12.3564 19.8994 12.4971 19.8994 12.708C19.8994 12.9102 20.0488 13.0508 20.251 13.0508Z" fill="#F9F9F9"/>
</svg>
