<svg width="12" height="17" viewBox="0 0 12 17" fill="none" xmlns="http://www.w3.org/2000/svg">
<path d="M1.0869 17.0039C1.58788 17.0039 1.83397 16.7402 1.92186 16.3184L3.54784 8.37305H8.44334L10.0781 16.3184C10.166 16.7402 10.4033 17.0039 10.9131 17.0039C11.6074 17.0039 11.8535 16.4941 11.7217 15.9316L10.0342 7.77539C9.90233 7.16895 9.41014 6.71191 8.81248 6.68555L6.82616 0.919922C6.68553 0.533203 6.41307 0.304688 6.00877 0.304688C5.5869 0.304688 5.28807 0.533203 5.15624 0.919922L3.16991 6.68555C2.58104 6.71191 2.08885 7.16895 1.95702 7.77539L0.278306 15.9316C0.14647 16.5029 0.401352 17.0039 1.0869 17.0039Z" fill="#191414" fill-opacity="0.75"/>
</svg>
