<svg width="28" height="18" viewBox="0 0 28 18" fill="none" xmlns="http://www.w3.org/2000/svg">
<path d="M9.06055 17.2588H11.9697C12.7607 17.2588 13.2881 16.7314 13.2881 16.0547C13.2881 15.668 13.1387 15.3164 12.8398 14.9736C12.4883 14.5605 12.2422 14.1123 12.2422 13.6025C12.2422 12.6445 12.9277 11.8799 14 11.8799C15.0723 11.8799 15.7578 12.6445 15.7578 13.6025C15.7578 14.1123 15.5205 14.5605 15.1602 14.9736C14.8613 15.3164 14.7119 15.668 14.7119 16.0547C14.7119 16.7314 15.2393 17.2588 16.0303 17.2588H18.9395C20.7324 17.2588 21.7256 16.292 21.7256 14.5166V11.5898C21.7256 11.4492 21.8223 11.3789 21.9893 11.4844C22.499 11.8359 23.1055 12.0732 23.7998 12.0732C25.5049 12.0732 27.0605 10.7285 27.0605 8.67188C27.0605 6.61523 25.5049 5.26172 23.7998 5.26172C23.1055 5.26172 22.499 5.50781 21.9893 5.85059C21.8223 5.95605 21.7256 5.89453 21.7256 5.74512V2.76562C21.7256 0.990234 20.7324 0.0234375 18.9395 0.0234375H16.0303C15.2393 0.0234375 14.7119 0.550781 14.7119 1.23633C14.7119 1.61426 14.8613 1.96582 15.1602 2.30859C15.5205 2.72168 15.7578 3.16992 15.7578 3.67969C15.7578 4.62891 15.0635 5.40234 14 5.40234C12.9453 5.40234 12.2422 4.62891 12.2422 3.67969C12.2422 3.16992 12.4883 2.72168 12.8398 2.30859C13.1387 1.96582 13.2881 1.61426 13.2881 1.23633C13.2881 0.550781 12.7607 0.0234375 11.9697 0.0234375H9.06055C7.26758 0.0234375 6.27441 0.990234 6.27441 2.76562V5.74512C6.27441 5.89453 6.17773 5.95605 6.01953 5.85059C5.50098 5.50781 4.89453 5.26172 4.2002 5.26172C2.49512 5.26172 0.939453 6.61523 0.939453 8.67188C0.939453 10.7285 2.49512 12.0732 4.2002 12.0732C4.89453 12.0732 5.50098 11.8359 6.01953 11.4844C6.17773 11.3789 6.27441 11.4492 6.27441 11.5898V14.5166C6.27441 16.292 7.26758 17.2588 9.06055 17.2588ZM9.08691 15.5889C8.375 15.5889 7.94434 15.1846 7.94434 14.4463V10.7021C7.94434 9.91113 7.41699 9.38379 6.74023 9.38379C6.35352 9.38379 6.00195 9.5332 5.65918 9.83203C5.24609 10.1836 4.79785 10.4297 4.28809 10.4297C3.33887 10.4297 2.56543 9.72656 2.56543 8.67188C2.56543 7.6084 3.33887 6.91406 4.28809 6.91406C4.79785 6.91406 5.24609 7.15137 5.65918 7.51172C6.00195 7.80176 6.35352 7.95996 6.74023 7.95996C7.41699 7.95996 7.94434 7.43262 7.94434 6.6416V2.83594C7.94434 2.10645 8.375 1.69336 9.08691 1.69336H10.9502C11.3281 1.69336 11.2139 1.87793 11.1172 2.05371C10.8184 2.56348 10.5986 3.12598 10.5986 3.76758C10.5986 5.47266 11.9434 7.02832 14 7.02832C16.0566 7.02832 17.4102 5.47266 17.4102 3.76758C17.4102 3.12598 17.1816 2.56348 16.8828 2.05371C16.7861 1.87793 16.6719 1.69336 17.0498 1.69336H18.9131C19.625 1.69336 20.0557 2.10645 20.0557 2.83594V6.6416C20.0557 7.43262 20.583 7.95996 21.2686 7.95996C21.6465 7.95996 21.998 7.80176 22.3408 7.51172C22.7539 7.15137 23.2021 6.91406 23.7119 6.91406C24.6611 6.91406 25.4434 7.6084 25.4434 8.67188C25.4434 9.72656 24.6611 10.4297 23.7119 10.4297C23.2021 10.4297 22.7539 10.1836 22.3408 9.83203C21.998 9.5332 21.6465 9.38379 21.2686 9.38379C20.583 9.38379 20.0557 9.91113 20.0557 10.7021V14.4463C20.0557 15.1846 19.625 15.5889 18.9131 15.5889H17.0498C16.6719 15.5889 16.7861 15.4043 16.8828 15.2285C17.1816 14.7188 17.4102 14.1562 17.4102 13.5146C17.4102 11.8008 16.0742 10.2539 14 10.2539C11.9346 10.2539 10.5986 11.8008 10.5986 13.5146C10.5986 14.1562 10.8184 14.7188 11.1172 15.2285C11.2139 15.4043 11.3281 15.5889 10.9502 15.5889H9.08691Z" fill="#191414" fill-opacity="0.75"/>
</svg>
