<svg width="22" height="21" viewBox="0 0 22 21" fill="none" xmlns="http://www.w3.org/2000/svg">
<path d="M3.47656 20.8809H18.5146C20.4219 20.8809 21.415 19.8965 21.415 18.0157V7.3194C21.415 5.43854 20.4219 4.45416 18.5146 4.45416H17.5566L5.70898 0.604553C5.27832 0.463928 4.8125 0.701232 4.68066 1.12311C4.54004 1.54498 4.77734 2.0108 5.20801 2.16022L12.2744 4.45416H3.47656C1.57812 4.45416 0.584961 5.42975 0.584961 7.3194V18.0157C0.584961 19.8965 1.57812 20.8809 3.47656 20.8809ZM3.59082 19.1319C2.78223 19.1319 2.33398 18.71 2.33398 17.8575V7.4776C2.33398 6.62506 2.78223 6.20319 3.59082 6.20319H18.4004C19.209 6.20319 19.6572 6.62506 19.6572 7.4776V17.8575C19.6572 18.71 19.209 19.1319 18.4004 19.1319H3.59082ZM8.95215 9.11236C9.3125 9.11236 9.60254 8.80475 9.60254 8.43561C9.60254 8.07526 9.3125 7.78522 8.95215 7.78522C8.5918 7.78522 8.30176 8.07526 8.30176 8.43561C8.30176 8.80475 8.5918 9.11236 8.95215 9.11236ZM16.5986 10.7823C17.3545 10.7735 17.9609 10.1758 17.9609 9.42877C17.9609 8.67291 17.3545 8.06647 16.5986 8.04889C15.8428 8.0401 15.2188 8.67291 15.2188 9.42877C15.2188 10.1758 15.8428 10.7911 16.5986 10.7823ZM11.0615 9.71002C11.4307 9.71002 11.7119 9.41119 11.7119 9.05084C11.7119 8.67291 11.4307 8.38287 11.0615 8.38287C10.7012 8.38287 10.4199 8.67291 10.4199 9.05084C10.4199 9.41119 10.7012 9.71002 11.0615 9.71002ZM6.84277 9.71002C7.20312 9.71002 7.48438 9.41119 7.48438 9.05084C7.48438 8.67291 7.20312 8.38287 6.84277 8.38287C6.47363 8.38287 6.18359 8.67291 6.18359 9.05084C6.18359 9.41119 6.47363 9.71002 6.84277 9.71002ZM12.6436 11.2305C13.0039 11.2305 13.3115 10.9405 13.3115 10.5801C13.3115 10.211 13.0039 9.90338 12.6436 9.90338C12.2832 9.90338 12.002 10.211 12.002 10.5801C12.002 10.9405 12.2832 11.2305 12.6436 11.2305ZM5.26074 11.2305C5.6123 11.2305 5.90234 10.9405 5.90234 10.5801C5.90234 10.211 5.6123 9.90338 5.26074 9.90338C4.90039 9.90338 4.59277 10.211 4.59277 10.5801C4.59277 10.9405 4.90039 11.2305 5.26074 11.2305ZM8.95215 11.2745C9.3125 11.2745 9.60254 10.9844 9.60254 10.6241C9.60254 10.2462 9.3125 9.94733 8.95215 9.94733C8.5918 9.94733 8.30176 10.2462 8.30176 10.6241C8.30176 10.9844 8.5918 11.2745 8.95215 11.2745ZM10.9121 12.127C11.2725 12.127 11.5625 11.8282 11.5625 11.4766C11.5625 11.1163 11.2725 10.8087 10.9121 10.8087C10.5605 10.8087 10.2529 11.1163 10.2529 11.4766C10.2529 11.8282 10.5605 12.127 10.9121 12.127ZM6.9834 12.127C7.34375 12.127 7.65137 11.8282 7.65137 11.4766C7.65137 11.1163 7.34375 10.8087 6.9834 10.8087C6.62305 10.8087 6.3418 11.1163 6.3418 11.4766C6.3418 11.8282 6.62305 12.127 6.9834 12.127ZM16.5986 14.6846C17.3457 14.6846 17.9609 14.0606 17.9609 13.3135C17.9609 12.5577 17.3545 11.9424 16.5986 11.9424C15.8428 11.9424 15.2188 12.5577 15.2188 13.3135C15.2188 14.0606 15.8428 14.6846 16.5986 14.6846ZM13.1797 13.2696C13.54 13.2696 13.8301 12.9796 13.8301 12.6192C13.8301 12.2501 13.54 11.96 13.1797 11.96C12.8193 11.96 12.5293 12.2501 12.5293 12.6192C12.5293 12.9796 12.8193 13.2696 13.1797 13.2696ZM4.72461 13.2696C5.08496 13.2696 5.375 12.9796 5.375 12.6192C5.375 12.2501 5.08496 11.96 4.72461 11.96C4.36426 11.96 4.06543 12.2501 4.06543 12.6192C4.06543 12.9796 4.36426 13.2696 4.72461 13.2696ZM8.95215 13.3047C9.3125 13.3047 9.60254 13.0147 9.60254 12.6544C9.60254 12.294 9.3125 12.004 8.95215 12.004C8.5918 12.004 8.30176 12.294 8.30176 12.6544C8.30176 13.0147 8.5918 13.3047 8.95215 13.3047ZM10.9121 14.5001C11.2725 14.5001 11.5625 14.2012 11.5625 13.8409C11.5625 13.4717 11.2725 13.1817 10.9121 13.1817C10.5605 13.1817 10.2529 13.4717 10.2529 13.8409C10.2529 14.2012 10.5605 14.5001 10.9121 14.5001ZM6.9834 14.5001C7.34375 14.5001 7.65137 14.2012 7.65137 13.8409C7.65137 13.4717 7.34375 13.1817 6.9834 13.1817C6.62305 13.1817 6.3418 13.4717 6.3418 13.8409C6.3418 14.2012 6.62305 14.5001 6.9834 14.5001ZM12.6436 15.3262C13.0039 15.3262 13.3115 15.0186 13.3115 14.6495C13.3115 14.2891 13.0039 13.9991 12.6436 13.9991C12.2832 13.9991 12.002 14.2891 12.002 14.6495C12.002 15.0186 12.2832 15.3262 12.6436 15.3262ZM5.26074 15.3262C5.6123 15.3262 5.90234 15.0186 5.90234 14.6495C5.90234 14.2891 5.6123 13.9991 5.26074 13.9991C4.90039 13.9991 4.59277 14.2891 4.59277 14.6495C4.59277 15.0186 4.90039 15.3262 5.26074 15.3262ZM8.95215 15.3614C9.3125 15.3614 9.60254 15.0538 9.60254 14.6934C9.60254 14.3243 9.3125 14.0342 8.95215 14.0342C8.5918 14.0342 8.30176 14.3243 8.30176 14.6934C8.30176 15.0538 8.5918 15.3614 8.95215 15.3614ZM11.0615 16.8907C11.4307 16.8907 11.7119 16.5919 11.7119 16.2227C11.7119 15.8624 11.4307 15.5635 11.0615 15.5635C10.7012 15.5635 10.4199 15.8624 10.4199 16.2227C10.4199 16.5919 10.7012 16.8907 11.0615 16.8907ZM6.84277 16.8907C7.20312 16.8907 7.48438 16.5919 7.48438 16.2227C7.48438 15.8624 7.20312 15.5635 6.84277 15.5635C6.47363 15.5635 6.18359 15.8624 6.18359 16.2227C6.18359 16.5919 6.47363 16.8907 6.84277 16.8907ZM8.95215 17.5323C9.3125 17.5323 9.60254 17.2335 9.60254 16.8731C9.60254 16.504 9.3125 16.1963 8.95215 16.1963C8.5918 16.1963 8.30176 16.504 8.30176 16.8731C8.30176 17.2335 8.5918 17.5323 8.95215 17.5323Z" fill="#191414" fill-opacity="0.75"/>
</svg>
