<svg width="22" height="21" viewBox="0 0 22 21" fill="none" xmlns="http://www.w3.org/2000/svg">
<path d="M11.6416 19.2344L20.2549 10.6123C20.9404 9.91797 21.0107 9.51367 21.0107 8.51172V5.18066C21.0107 4.20508 20.7822 3.87109 20.0703 3.15918L18.0576 1.14648C17.3369 0.43457 17.0029 0.206055 16.0361 0.206055H12.6963C11.7031 0.206055 11.2988 0.276367 10.6133 0.970703L1.98242 9.58398C0.664065 10.9023 0.646487 12.2998 1.99121 13.627L7.59864 19.2344C8.93457 20.5615 10.3232 20.5527 11.6416 19.2344ZM10.5078 17.8896C9.92774 18.4697 9.32129 18.4785 8.72364 17.8809L3.33594 12.502C2.73828 11.9043 2.75586 11.2891 3.32715 10.7178L11.8613 2.20117C12.0371 2.02539 12.2041 1.91992 12.4854 1.91992H16.0186C16.2822 1.91992 16.4668 2.0166 16.6426 2.19238L19.0244 4.57422C19.1914 4.75 19.2881 4.92578 19.2881 5.19824V8.73145C19.2881 9.02148 19.2002 9.18848 19.0244 9.36426L10.5078 17.8896ZM14.9375 7.53613C15.6582 7.53613 16.2031 6.98242 16.2031 6.27051C16.2031 5.56738 15.6582 5.00488 14.9375 5.00488C14.2256 5.00488 13.6807 5.56738 13.6807 6.27051C13.6807 6.98242 14.2256 7.53613 14.9375 7.53613Z" fill="#191414" fill-opacity="0.75"/>
</svg>
