<svg width="24" height="21" viewBox="0 0 24 21" fill="none" xmlns="http://www.w3.org/2000/svg">
<path d="M7.51757 20.4626H16.4736C18.0557 20.4626 19.0664 19.4607 19.0928 17.8875L19.207 9.64331L21.0879 10.0652C22.0723 10.2761 22.7051 9.8894 22.9248 8.91382L23.6894 5.65308C23.9092 4.67749 23.5312 4.00073 22.626 3.61401L16.5703 1.03882C16.0781 0.827881 15.7266 0.83667 15.3135 1.03003C14.1445 1.58374 13.2568 1.84741 11.9912 1.84741C10.7344 1.84741 9.84667 1.58374 8.67773 1.03003C8.26464 0.83667 7.91308 0.827881 7.42089 1.03882L1.36523 3.61401C0.459956 4.00073 0.0820265 4.67749 0.301753 5.65308L1.0664 8.91382C1.28613 9.8894 1.91894 10.2761 2.90332 10.0652L4.78417 9.64331L4.89843 17.8875C4.9248 19.4607 5.93554 20.4626 7.51757 20.4626ZM7.53515 18.8455C6.91113 18.8455 6.52441 18.45 6.51562 17.8083L6.39257 8.00854C6.39257 7.79761 6.23437 7.65698 5.99707 7.70972L2.87695 8.39526C2.71875 8.43921 2.60449 8.3689 2.56933 8.21948L1.91015 5.44214C1.86621 5.23999 1.92773 5.1521 2.09472 5.08179L7.59667 2.7439C8.07128 4.76538 9.89062 6.18042 11.9912 6.18042C14.1006 6.18042 15.9199 4.76538 16.3945 2.7439L21.8965 5.08179C22.0635 5.1521 22.125 5.23999 22.0723 5.44214L21.4219 8.21948C21.3867 8.3689 21.2725 8.43921 21.1143 8.39526L17.9941 7.70972C17.7568 7.65698 17.5986 7.79761 17.5986 8.00854L17.4756 17.8083C17.4668 18.45 17.0801 18.8455 16.456 18.8455H7.53515ZM11.9912 3.3855C12.958 3.3855 13.8018 3.23608 14.6191 2.93726C14.1269 3.91284 13.1338 4.56323 11.9912 4.56323C10.8574 4.56323 9.86425 3.91284 9.37207 2.93726C10.1894 3.23608 11.0332 3.3855 11.9912 3.3855Z" fill="#191414" fill-opacity="0.75"/>
</svg>
