<svg width="22" height="22" viewBox="0 0 22 22" fill="none" xmlns="http://www.w3.org/2000/svg">
<path d="M1.97364 20.0675C3.5381 21.6144 5.65626 21.6056 7.15919 20.0851C8.5127 18.7228 8.89942 17.0529 11.1055 14.1437L14.6387 17.6593L14.7529 18.4328C14.8057 18.7756 15.0254 19.0832 15.3067 19.2765L18.0928 21.1486C18.4092 21.3595 18.7256 21.3595 18.9541 21.131L20.6328 19.4523C20.8525 19.2238 20.835 18.8986 20.6328 18.591L18.7783 15.8136C18.5762 15.5148 18.2686 15.3127 17.9258 15.2599L17.1611 15.1457L13.4258 11.4103C13.751 11.0675 14.0938 10.7072 14.4717 10.3293C16.3613 11.1642 18.6113 10.8478 20.1055 9.34489C21.749 7.71012 22.0039 5.10856 20.7207 3.05192L19.7188 4.05387V4.06266L18.3037 5.46012C18.084 5.68864 17.8115 5.69743 17.583 5.46012L16.5986 4.47575C16.3525 4.22965 16.3438 3.95719 16.5635 3.73746L17.9697 2.33121L18.9805 1.32926C16.9326 0.0460581 14.3399 0.292152 12.6963 1.93571C11.4043 3.23649 10.9824 5.08219 11.4307 6.77848L6.61427 1.9445C5.31349 0.643714 3.91602 0.634925 2.64161 1.90934L1.40235 3.15739C0.127939 4.42301 0.136728 5.82047 1.43751 7.12125L6.35059 12.0343C4.34669 13.3351 3.06349 13.7834 1.95606 14.8732C0.435556 16.3849 0.426767 18.4943 1.97364 20.0675ZM15.5352 5.24039L16.8096 6.50602C17.4688 7.1652 18.3125 7.18278 18.9365 6.55875L20.1231 5.36344C20.2725 6.47086 19.9297 7.57828 19.1299 8.37809C17.6973 9.81071 15.3242 9.74039 13.8037 8.23746C12.292 6.72575 12.2305 4.33512 13.6719 2.91129C14.4629 2.12028 15.5703 1.7775 16.669 1.91813L15.4824 3.09586C14.832 3.74625 14.8584 4.58121 15.5352 5.24039ZM2.37794 6.0402C1.7627 5.42496 1.77149 4.80973 2.36915 4.20328L3.68751 2.86735C4.29395 2.2609 4.91798 2.26969 5.53321 2.88493L10.9561 8.30778C9.6377 9.56461 8.50392 10.4963 7.51954 11.217L2.37794 6.0402ZM7.73927 7.70133C7.88868 7.86832 8.16114 7.85075 8.30177 7.71012C8.46876 7.54313 8.46876 7.28825 8.31056 7.13004L5.11134 3.93961C4.95313 3.78141 4.70704 3.7902 4.55763 3.93961C4.39942 4.09782 4.39942 4.34391 4.55763 4.50211L7.73927 7.70133ZM6.62306 8.80875C6.78126 8.97575 7.03614 8.96696 7.19434 8.80875C7.34376 8.65934 7.35255 8.41325 7.19434 8.25504L3.99513 5.05582C3.8545 4.90641 3.59083 4.90641 3.43263 5.05582C3.27442 5.21403 3.26563 5.4777 3.42384 5.62711L6.62306 8.80875ZM12.8281 9.20426C12.9863 9.35367 13.1445 9.50309 13.3115 9.62614C7.53712 15.5675 8.13477 17.0529 6.13087 19.0656C5.21681 19.9884 3.96876 20.0236 2.99317 19.0568C2.01759 18.0636 2.06153 16.8244 2.9756 15.9103C4.98829 13.9064 6.46485 14.5041 12.4063 8.72965C12.5381 8.89664 12.6787 9.05485 12.8281 9.20426ZM16.2383 18.0373L16.0537 17.0529L12.0108 13.0099C12.1514 12.8341 12.3008 12.6672 12.459 12.4826L16.5459 16.5695L17.5303 16.7365L19.1475 18.881L18.374 19.6545L16.2383 18.0373ZM4.54005 18.5646C5.11134 18.5646 5.57716 18.0988 5.57716 17.5187C5.57716 16.9474 5.11134 16.4816 4.54005 16.4816C3.96876 16.4816 3.49415 16.9474 3.49415 17.5187C3.49415 18.0988 3.96876 18.5646 4.54005 18.5646Z" fill="#191414" fill-opacity="0.75"/>
</svg>
