<svg width="23" height="18" viewBox="0 0 23 18" fill="none" xmlns="http://www.w3.org/2000/svg">
<path d="M3.24915 17.8809H19.1925C21.0909 17.8809 22.0929 16.8965 22.0929 15.0156V5.78711C22.0929 3.90625 21.0909 2.92188 19.1925 2.92188H16.7931C16.1075 2.92188 15.8878 2.80762 15.4572 2.35938L14.7628 1.6123C14.3058 1.12891 13.84 0.891602 12.9435 0.891602H9.45422C8.55774 0.891602 8.10071 1.12891 7.63489 1.6123L6.94055 2.35938C6.51868 2.79883 6.29016 2.92188 5.60461 2.92188H3.24915C1.35071 2.92188 0.357544 3.90625 0.357544 5.78711V15.0156C0.357544 16.8965 1.35071 17.8809 3.24915 17.8809ZM3.3634 16.1318C2.5636 16.1318 2.10657 15.71 2.10657 14.8574V5.94531C2.10657 5.10156 2.5636 4.67969 3.3634 4.67969H6.11438C6.9054 4.67969 7.30969 4.53906 7.75793 4.05566L8.4259 3.31738C8.91809 2.78125 9.18176 2.64062 9.9552 2.64062H12.4425C13.2159 2.64062 13.4796 2.78125 13.963 3.30859L14.6398 4.05566C15.088 4.53906 15.4923 4.67969 16.2833 4.67969H19.0782C19.8868 4.67969 20.3351 5.10156 20.3351 5.94531V14.8574C20.3351 15.71 19.8868 16.1318 19.0782 16.1318H3.3634ZM11.2296 5.18945C10.1925 5.18945 9.19055 5.54102 8.48743 6.10352C8.05676 6.4375 7.95129 6.89453 8.24133 7.22852C8.52258 7.5625 8.93567 7.58008 9.3136 7.30762C9.89368 6.85938 10.4825 6.63965 11.2296 6.63965C12.8029 6.63965 14.1124 7.67676 14.4904 9.07422H13.629C13.2159 9.07422 13.0929 9.47852 13.339 9.8125L14.7189 11.6934C14.9562 12.0273 15.3781 12.0449 15.6241 11.6934L16.9777 9.8125C17.2238 9.47852 17.1095 9.07422 16.6876 9.07422H15.8966C15.4923 6.78906 13.6027 5.18945 11.2296 5.18945ZM5.73645 10.7002H6.56262C6.97571 12.9854 8.86536 14.585 11.2384 14.585C12.2755 14.585 13.2687 14.2422 13.9806 13.6709C14.4113 13.3457 14.5167 12.8799 14.2267 12.5459C13.9454 12.2119 13.5323 12.1943 13.1456 12.4668C12.5656 12.9062 11.9855 13.1348 11.2384 13.1348C9.66516 13.1348 8.35559 12.0977 7.96887 10.7002H8.79504C9.20813 10.7002 9.33118 10.2959 9.08508 9.96191L7.71399 8.08105C7.4679 7.74707 7.05481 7.73828 6.79993 8.08105L5.44641 9.96191C5.20911 10.2959 5.31458 10.7002 5.73645 10.7002Z" fill="#191414" fill-opacity="0.5"/>
</svg>
