<svg width="33" height="29" viewBox="0 0 33 29" fill="none" xmlns="http://www.w3.org/2000/svg">
<path d="M11.876 21.3156H27.9524C28.6016 21.3156 29.1954 20.8045 29.1954 20.0725C29.1954 19.3544 28.6016 18.8433 27.9524 18.8433H12.1936C11.5307 18.8433 11.1163 18.3876 11.0197 17.6832L10.8125 16.2468H28.0629C30.1761 16.2468 31.2948 14.9623 31.5986 12.863L32.6345 5.9435C32.6621 5.76395 32.6897 5.52916 32.6897 5.37723C32.6897 4.56236 32.1235 4.00991 31.1705 4.00991H9.03083L8.82366 2.51828C8.64411 1.31669 8.16071 0.708984 6.62765 0.708984H1.89034C1.19977 0.708984 0.592072 1.31669 0.592072 2.02107C0.592072 2.73926 1.19977 3.34696 1.89034 3.34696H6.2133L8.35407 17.9594C8.65792 20.0449 9.76283 21.3156 11.876 21.3156ZM29.817 6.48214L28.9468 12.6144C28.8364 13.3188 28.4634 13.7607 27.7867 13.7607L10.4534 13.7746L9.38992 6.48214H29.817ZM13.0085 28.2489C14.3482 28.2489 15.4255 27.1716 15.4255 25.8319C15.4255 24.4922 14.3482 23.4149 13.0085 23.4149C11.6688 23.4149 10.5915 24.4922 10.5915 25.8319C10.5915 27.1716 11.6688 28.2489 13.0085 28.2489ZM25.7702 28.2489C27.1099 28.2489 28.1734 27.1716 28.1734 25.8319C28.1734 24.4922 27.1099 23.4149 25.7702 23.4149C24.4305 23.4149 23.3394 24.4922 23.3394 25.8319C23.3394 27.1716 24.4305 28.2489 25.7702 28.2489Z" fill="#191414"/>
</svg>
