<svg width="11" height="12" viewBox="0 0 11 12" fill="none" xmlns="http://www.w3.org/2000/svg">
<path d="M10.9955 6.00516C10.9955 3.15751 8.64509 0.80706 5.80245 0.80706C2.95982 0.80706 0.609375 3.16253 0.609375 6.01018C0.609375 8.85282 2.95982 11.1982 5.80246 11.1982C8.64509 11.1982 10.9955 8.8478 10.9955 6.00516ZM9.96094 6.00516C9.96094 8.31041 8.1077 10.1536 5.80246 10.1536C3.49721 10.1536 1.649 8.31041 1.649 6.01018C1.649 3.70494 3.49721 1.8517 5.80246 1.84668C8.1077 1.84166 9.96094 3.69992 9.96094 6.00516ZM6.08371 8.04422L7.78627 5.15137C7.9269 4.91532 7.80636 4.63909 7.56027 4.63909L4.05469 4.63909C3.80859 4.63909 3.6981 4.93039 3.82868 5.15137L5.53627 8.04422C5.65681 8.25014 5.96317 8.25516 6.08371 8.04422Z" fill="#191414"/>
</svg>
