<svg width="28" height="27" viewBox="0 0 28 27" fill="none" xmlns="http://www.w3.org/2000/svg">
<path d="M0.00906372 9.57596C0.00906372 15.4734 4.96735 21.3018 12.6741 26.2739C13.1023 26.5502 13.6271 26.8264 13.9862 26.8264C14.3453 26.8264 14.8701 26.5502 15.2983 26.2739C23.0188 21.3018 27.9633 15.4734 27.9633 9.57596C27.9633 4.47956 24.4414 0.943848 19.9251 0.943848C17.2871 0.943848 15.2292 2.14544 13.9862 3.96854C12.7708 2.15925 10.6991 0.943848 8.0611 0.943848C3.53097 0.943848 0.00906372 4.47956 0.00906372 9.57596ZM2.85421 9.56215C2.85421 6.08168 5.1469 3.71994 8.22684 3.71994C10.7129 3.71994 12.1078 5.22538 12.978 6.53746C13.3647 7.10373 13.6271 7.28327 13.9862 7.28327C14.3591 7.28327 14.5939 7.08991 14.9944 6.53746C15.9336 5.253 17.2733 3.71994 19.7455 3.71994C22.8393 3.71994 25.132 6.08168 25.132 9.56215C25.132 14.4238 20.077 19.8102 14.2486 23.6774C14.1243 23.7603 14.0414 23.8155 13.9862 23.8155C13.9309 23.8155 13.8481 23.7603 13.7376 23.6774C7.90918 19.8102 2.85421 14.4238 2.85421 9.56215Z" fill="#191414"/>
</svg>
