<svg width="26" height="27" viewBox="0 0 26 27" fill="none" xmlns="http://www.w3.org/2000/svg">
<path d="M13 13.7604C16.3424 13.7604 19.0494 10.8048 19.0494 7.18617C19.0494 3.62284 16.3424 0.791504 13 0.791504C9.67145 0.791504 6.9368 3.66427 6.95061 7.2138C6.96442 10.8186 9.65764 13.7604 13 13.7604ZM13 11.3434C11.094 11.3434 9.47809 9.53411 9.47809 7.2138C9.46428 4.94873 11.0802 3.2085 13 3.2085C14.9336 3.2085 16.5219 4.92111 16.5219 7.18617C16.5219 9.50649 14.9198 11.3434 13 11.3434ZM4.38169 26.605H21.6045C23.9939 26.605 25.1402 25.8454 25.1402 24.2156C25.1402 20.4175 20.4029 15.3625 13 15.3625C5.59709 15.3625 0.845978 20.4175 0.845978 24.2156C0.845978 25.8454 1.99232 26.605 4.38169 26.605ZM3.95354 24.188C3.62207 24.188 3.49776 24.0775 3.49776 23.8289C3.49776 21.7157 6.90918 17.7795 13 17.7795C19.077 17.7795 22.4884 21.7157 22.4884 23.8289C22.4884 24.0775 22.3641 24.188 22.0326 24.188H3.95354Z" fill="#191414"/>
</svg>
