<svg width="30" height="29" viewBox="0 0 30 29" fill="none" xmlns="http://www.w3.org/2000/svg">
<path d="M15 28.7238C22.8034 28.7238 29.2672 22.2739 29.2672 14.4566C29.2672 6.65318 22.8034 0.189453 14.9862 0.189453C7.18277 0.189453 0.732849 6.65318 0.732849 14.4566C0.732849 22.2739 7.19658 28.7238 15 28.7238ZM14.4337 22.7987L15.221 19.6635C12.9835 18.6553 12.3068 18.089 12.3068 17.0946C12.3068 16.1968 12.7349 15.7411 13.025 15.1472C13.7017 13.7384 12.804 12.5506 11.1881 12.5506C8.38436 12.5506 6.93416 11.4181 6.93416 9.2221C6.93416 7.23326 7.63854 5.39634 8.37054 4.42955C10.2765 3.14509 12.5554 2.39927 14.9862 2.39927C15.5387 2.39927 16.0911 2.44071 16.6159 2.50977C17.6242 3.21415 18.1766 3.75279 18.1766 4.07045C18.1766 4.96819 17.4446 5.52065 16.8922 6.14216C16.3121 6.79129 16.3535 7.53711 16.9474 8.131C17.6104 8.78013 18.37 9.45689 19.4473 10.4789C19.5854 10.6032 19.6268 10.6999 19.6268 10.7828C19.6268 10.9209 19.544 11.0176 19.4058 11.0176C19.2953 11.0176 19.2125 10.99 19.0191 10.8518C18.881 10.7552 18.149 10.2718 17.7761 10.0093C17.4032 9.76074 17.0579 9.73312 16.6021 9.88504L14.2128 10.769C13.6465 10.9761 13.4255 11.5424 13.7294 12.0949L14.9724 14.498L16.2154 14.4842C17.3479 14.4704 18.0799 14.6638 18.5081 15.0643C19.0053 15.5201 19.7511 16.7769 19.7511 17.1498C19.7511 17.8128 19.544 18.2271 18.9777 18.8486L15.0414 23.1025C14.7514 23.4202 14.3233 23.2268 14.4337 22.7987ZM5.34585 9.2221C5.34585 12.3435 7.51424 14.139 11.3262 14.139C11.6162 14.139 11.782 14.3737 11.6024 14.65C10.9671 15.6444 10.7047 16.2797 10.7047 17.0946C10.7047 18.9729 12.2239 19.995 13.4255 20.4922L12.9283 22.4534C12.3897 24.6218 14.8205 25.6715 16.3811 24.0003L19.7097 20.3955C20.8422 19.1663 21.3394 18.2133 21.3394 17.1498C21.3394 16.2935 20.3864 14.7467 19.5854 14.0008C18.7153 13.1998 17.8452 13.0479 16.4502 13.0479H15.8563L15.2624 11.9153L17.0165 11.2662C18.1628 11.9844 18.7567 12.4263 19.4197 12.4263C20.4141 12.4263 21.077 11.791 21.077 10.8795C21.077 10.3546 20.8698 9.89886 20.4693 9.49833C19.4335 8.47628 18.9777 8.02051 18.2733 7.31613C18.1214 7.17801 18.1352 7.10896 18.3147 6.90179C18.9086 6.23884 19.7649 5.23061 19.7649 4.07045C19.7649 3.82185 19.7373 3.58705 19.6406 3.35226C23.9636 5.20299 27.0573 9.51214 27.0573 14.4566C27.0573 21.0446 21.588 26.514 15 26.514C8.41198 26.514 2.94267 21.0446 2.94267 14.4566C2.94267 11.6391 3.9509 9.01493 5.60827 6.95703C5.44253 7.68903 5.34585 8.46247 5.34585 9.2221Z" fill="#191414"/>
</svg>
