<svg width="26" height="30" viewBox="0 0 26 30" fill="none" xmlns="http://www.w3.org/2000/svg">
<path d="M5.04468 29.3842H21.2869C23.9525 29.3842 25.4993 27.8374 25.4993 24.8817V10.5869C25.4993 7.6313 23.9387 6.08442 20.9554 6.08442H19.008C18.9389 2.99067 16.301 0.421753 13 0.421753C9.71292 0.421753 7.06114 2.99067 6.99208 6.08442H5.04468C2.06142 6.08442 0.500732 7.6313 0.500732 10.5869V24.8817C0.500732 27.8374 2.06142 29.3842 5.04468 29.3842ZM13 2.86637C14.8922 2.86637 16.2871 4.28894 16.3424 6.08442H9.65768C9.71292 4.28894 11.1079 2.86637 13 2.86637ZM5.22423 26.6358C3.95358 26.6358 3.2492 25.9728 3.2492 24.6331V10.8355C3.2492 9.50964 3.95358 8.8467 5.22423 8.8467H20.7758C22.0327 8.8467 22.7509 9.50964 22.7509 10.8355V24.6331C22.7509 25.9728 22.0327 26.6358 21.1073 26.6358H5.22423Z" fill="#191414"/>
</svg>
