<svg width="34" height="25" viewBox="0 0 34 25" fill="none" xmlns="http://www.w3.org/2000/svg">
<path d="M5.19304 24.445H28.7966C31.7937 24.445 33.3406 22.8843 33.3406 19.9287V5.0124C33.3406 2.05676 31.7937 0.509888 28.7966 0.509888H5.19304C2.20979 0.509888 0.649109 2.05676 0.649109 5.0124V19.9287C0.649109 22.8981 2.20979 24.445 5.19304 24.445ZM3.39757 5.261C3.39757 3.93511 4.10195 3.27216 5.37259 3.27216H28.6171C29.8877 3.27216 30.5921 3.93511 30.5921 5.261V6.25542H3.39757V5.261ZM5.37259 21.6827C4.10195 21.6827 3.39757 21.0198 3.39757 19.6939V9.5011H30.5921V19.6939C30.5921 21.0198 29.8877 21.6827 28.6171 21.6827H5.37259ZM7.25093 19.1829H10.6347C11.4496 19.1829 12.002 18.6442 12.002 17.8708V15.3019C12.002 14.5284 11.4496 13.9898 10.6347 13.9898H7.25093C6.44987 13.9898 5.89742 14.5284 5.89742 15.3019V17.8708C5.89742 18.6442 6.44987 19.1829 7.25093 19.1829Z" fill="#191414"/>
</svg>
