<svg width="36" height="27" viewBox="0 0 36 27" fill="none" xmlns="http://www.w3.org/2000/svg">
<path d="M4.65822 26.3704H23.0826C22.7235 25.8594 22.4749 25.2379 22.3782 24.5335C22.3644 24.2573 22.3506 23.9673 22.3368 23.6634H4.82395C3.53949 23.6634 2.83511 22.9867 2.83511 21.647V5.29428C2.83511 3.95457 3.53949 3.29163 4.82395 3.29163H28.4C29.6568 3.29163 30.375 3.95457 30.375 5.29428V5.70862C31.328 5.70862 32.1981 5.70862 33.082 5.70862V5.07329C33.082 2.11766 31.549 0.584595 28.5519 0.584595H4.65822C1.67496 0.584595 0.128082 2.11766 0.128082 5.07329V21.8818C0.128082 24.8374 1.68877 26.3704 4.65822 26.3704ZM26.6874 26.3704H33.1649C34.8637 26.3704 35.8581 25.3898 35.8581 23.7463V10.004C35.8581 8.3604 34.8637 7.3798 33.1649 7.3798H26.6874C24.9748 7.3798 23.9527 8.3604 23.9527 10.004V23.7463C23.9527 25.3898 24.9748 26.3704 26.6874 26.3704ZM26.8255 24.2987C26.273 24.2987 25.983 24.0087 25.983 23.4286V10.3216C25.983 9.74154 26.273 9.43769 26.8255 9.43769H27.3503C27.4056 9.43769 27.4332 9.47913 27.4332 9.53437V9.65867C27.4332 10.1421 27.7647 10.4735 28.2342 10.4735H31.5766C32.0462 10.4735 32.3915 10.1421 32.3915 9.65867V9.53437C32.3915 9.47913 32.4191 9.43769 32.4605 9.43769H32.9854C33.5516 9.43769 33.8417 9.75535 33.8417 10.3354V23.4148C33.8417 23.9949 33.5516 24.2987 32.9854 24.2987H26.8255ZM11.2601 22.5585H22.2954V21.205H11.2601C10.8595 21.205 10.5833 21.4674 10.5833 21.8818C10.5833 22.2961 10.8595 22.5585 11.2601 22.5585ZM28.0271 23.5667H31.77C32.06 23.5667 32.2672 23.3734 32.2672 23.0833C32.2672 22.7933 32.06 22.5861 31.77 22.5861H28.0271C27.7508 22.5861 27.5437 22.7933 27.5437 23.0833C27.5437 23.3734 27.737 23.5667 28.0271 23.5667Z" fill="#191414"/>
</svg>
