<svg width="31" height="29" viewBox="0 0 31 29" fill="none" xmlns="http://www.w3.org/2000/svg">
<path d="M22.6321 13.5451C23.0879 13.5451 23.447 13.1861 23.447 12.7303V1.04585C23.447 0.576259 23.0879 0.217163 22.6321 0.217163C22.1763 0.217163 21.8172 0.576259 21.8172 1.04585V12.7303C21.8172 13.1999 22.1625 13.5451 22.6321 13.5451ZM20.6847 28.2266C23.1017 28.2266 24.7314 27.5361 26.2093 25.9201C26.3198 25.8097 26.4164 25.6992 26.5131 25.5749C27.328 24.6633 27.7285 23.7103 27.7285 22.8402C27.7285 21.8044 27.1761 20.8652 25.933 20.0089L21.8311 17.1499C20.5328 16.2522 19.0412 16.1831 17.881 17.3433L16.8451 18.3653C16.486 18.7244 16.1684 18.752 15.754 18.4758C15.0082 17.9648 13.5995 16.7218 12.6189 15.755C11.6244 14.7744 10.63 13.6418 10.0914 12.7993C9.81515 12.3988 9.82896 12.0673 10.1881 11.7082L11.2239 10.6862C12.3841 9.52604 12.3012 8.0206 11.4035 6.73614L8.48926 2.5651C7.66057 1.37732 6.69378 0.811053 5.65792 0.797241C4.774 0.78343 3.83482 1.18396 2.92327 1.98502C2.81278 2.0817 2.70229 2.17838 2.5918 2.27506C0.962054 3.7805 0.257673 5.38262 0.257673 7.89629C0.257673 11.9568 2.61942 16.7632 7.2048 21.321C11.7764 25.8649 16.5275 28.2266 20.6847 28.2266ZM25.9192 11.9707C26.375 11.9707 26.7341 11.6116 26.7341 11.1558V2.59272C26.7341 2.15076 26.375 1.79166 25.9192 1.79166C25.4634 1.79166 25.1044 2.15076 25.1044 2.59272V11.1558C25.1044 11.6116 25.4634 11.9707 25.9192 11.9707ZM19.345 11.2386C19.8008 11.2386 20.1599 10.8796 20.1599 10.41V3.32472C20.1599 2.88276 19.8008 2.50985 19.345 2.50985C18.8892 2.50985 18.5301 2.88276 18.5301 3.32472V10.41C18.5301 10.8796 18.8892 11.2386 19.345 11.2386ZM20.6847 25.934C17.1628 25.9892 12.757 23.4617 8.94503 19.6774C5.11928 15.8931 2.50893 11.3353 2.57799 7.81342C2.5918 6.32179 3.11663 5.03734 4.16629 4.11197C4.27679 4.0291 4.35965 3.96005 4.45633 3.87718C4.85686 3.54571 5.27121 3.36616 5.65792 3.36616C6.05845 3.36616 6.41755 3.5319 6.67997 3.94624L9.29032 7.84105C9.60798 8.31063 9.62179 8.83547 9.1522 9.30505L8.03348 10.41C6.99763 11.4182 7.0805 12.6198 7.75725 13.559C8.50307 14.6086 9.89802 16.1831 11.0582 17.3295C12.2874 18.5449 14 20.0779 15.0082 20.8099C15.9474 21.4867 17.1352 21.5696 18.1572 20.5337L19.2621 19.415C19.7179 18.9316 20.2566 18.9592 20.7261 19.2769L24.5519 21.8182C24.98 22.0944 25.132 22.4397 25.132 22.854C25.132 23.2269 24.9524 23.6551 24.621 24.0418C24.5381 24.1385 24.469 24.2352 24.3862 24.3318C23.4746 25.3815 22.1763 25.9063 20.6847 25.934ZM29.2201 9.49841C29.6759 9.49841 30.0212 9.15313 30.0212 8.68354V5.05115C30.0212 4.59537 29.6759 4.23628 29.2201 4.23628C28.7506 4.23628 28.4053 4.60918 28.4053 5.05115V8.68354C28.4053 9.15313 28.7506 9.49841 29.2201 9.49841ZM16.0303 8.78022C16.4999 8.78022 16.859 8.42113 16.859 7.97916V5.78315C16.859 5.32737 16.4999 4.96828 16.0303 4.96828C15.5883 4.96828 15.2292 5.32737 15.2292 5.78315V7.97916C15.2292 8.42113 15.5883 8.78022 16.0303 8.78022Z" fill="#191414"/>
</svg>
