<svg width="52" height="52" viewBox="0 0 52 52" fill="none" xmlns="http://www.w3.org/2000/svg">
<path fill-rule="evenodd" clip-rule="evenodd" d="M10 26C10 17.1634 17.1634 10 26 10C34.8366 10 42 17.1634 42 26C42 34.8366 34.8366 42 26 42C17.1634 42 10 34.8366 10 26ZM28.6048 19.441C29.2157 18.6524 29.6788 17.5378 29.5113 16.4C28.5128 16.4694 27.3457 17.1082 26.6648 17.9409C26.044 18.6953 25.5338 19.8177 25.7331 20.9069C26.8246 20.9411 27.9512 20.2869 28.6048 19.441ZM34 30.1433C30.8229 28.9351 30.3138 24.4182 33.4581 22.6846C32.499 21.4819 31.1513 20.7847 29.8791 20.7847C28.1986 20.7847 27.4881 21.5887 26.321 21.5887C25.1178 21.5887 24.2036 20.7869 22.7508 20.7869C21.3232 20.7869 19.8036 21.6592 18.8402 23.1505C17.4859 25.2509 17.7169 29.1994 19.9131 32.5631C20.6981 33.7669 21.7469 35.1195 23.1187 35.1316C24.3394 35.1437 24.6843 34.3485 26.3385 34.3397C27.9928 34.3297 28.307 35.1415 29.5255 35.1283C30.8984 35.1173 32.0053 33.6182 32.7902 32.4144C33.353 31.552 33.5632 31.117 34 30.1433Z" fill="#F9F9F9"/>
</svg>
