<svg width="52" height="52" viewBox="0 0 52 52" fill="none" xmlns="http://www.w3.org/2000/svg">
<path fill-rule="evenodd" clip-rule="evenodd" d="M26 42C17.1634 42 10 34.8366 10 26C10 17.1634 17.1634 10 26 10C34.8366 10 42 17.1634 42 26C42 34.8366 34.8366 42 26 42ZM29.4198 26.1775L19.7904 16.4218C19.3926 16.5116 19.0667 16.8603 19.0667 17.5611V34.8278C19.0667 35.4878 19.3231 35.952 19.7973 35.9983L29.4198 26.1775ZM29.855 25.7153L32.4282 23.1089C32.4282 23.1089 21.2461 16.9295 20.5767 16.5596C20.3193 16.4173 20.0388 16.3677 19.7905 16.4237L29.855 25.7153ZM30.2974 26.1624L33.2011 28.8033C33.2011 28.8033 36.49 26.9798 36.6307 26.9017C37.1055 26.6385 37.6029 25.9668 36.6307 25.4299C36.3838 25.2932 33.2162 23.5433 33.2162 23.5433L30.2974 26.1624ZM19.7974 35.9978C20.0147 36.0258 20.2761 35.9675 20.5767 35.8008C21.1991 35.4558 27.8829 31.75 32.4311 29.2284L29.8551 26.5671L19.7974 35.9978Z" fill="#F9F9F9"/>
</svg>
